<!DOCTYPE svg PUBLIC "-//W3C//DTD SVG 1.1//EN" "http://www.w3.org/Graphics/SVG/1.1/DTD/svg11.dtd">
<!-- Uploaded to: SVG Repo, www.svgrepo.com, Transformed by: SVG Repo Mixer Tools -->
<svg width="800px" height="800px" viewBox="0 0 1024 1024" class="icon" version="1.1" xmlns="http://www.w3.org/2000/svg" fill="#000000">
<g id="SVGRepo_bgCarrier" stroke-width="0"/>
<g id="SVGRepo_tracerCarrier" stroke-linecap="round" stroke-linejoin="round"/>
<g id="SVGRepo_iconCarrier">
<path d="M213.333333 874.666667V149.333333c0-46.933333 38.4-85.333333 85.333334-85.333333h426.666666c46.933333 0 85.333333 38.4 85.333334 85.333333v725.333334c0 46.933333-38.4 85.333333-85.333334 85.333333H298.666667c-46.933333 0-85.333333-38.4-85.333334-85.333333z" fill="#0a0a0a"/>
<path d="M725.333333 128H298.666667c-12.8 0-21.333333 8.533333-21.333334 21.333333v725.333334c0 12.8 8.533333 21.333333 21.333334 21.333333h426.666666c12.8 0 21.333333-8.533333 21.333334-21.333333V149.333333c0-12.8-8.533333-21.333333-21.333334-21.333333z" fill="#23672e"/>
<path d="M618.666667 640H405.333333c-12.8 0-21.333333-8.533333-21.333333-21.333333v-128c0-12.8 8.533333-21.333333 21.333333-21.333334h213.333334c12.8 0 21.333333 8.533333 21.333333 21.333334v128c0 12.8-8.533333 21.333333-21.333333 21.333333z" fill="#f5f5f5"/>
<path d="M512 341.333333c-46.933333 0-85.333333 38.4-85.333333 85.333334v64h42.666666v-64c0-23.466667 19.2-42.666667 42.666667-42.666667s42.666667 19.2 42.666667 42.666667v64h42.666666v-64c0-46.933333-38.4-85.333333-85.333333-85.333334z" fill="#f5f5f5"/>
</g>
</svg>